# xmcd
#
# Track frame offsets:
# 150
# 12270
# 28906
# 47103
# 67211
# 81234
# 101912
# 118682
# 136958
# 156951
#
# Disc length: 2326 seconds
#
#
# Revision: 0
# Processed by: cddbd v1.5.2PL0 Copyright (c) Steve Scherf et al.
# Submitted via: FreeRIP 2.30 
#
DISCID=8e09140a
DTITLE=Chad Price - Smile Sweet Face
DYEAR=2009
DGENRE=Acoustic
TTITLE0=This Cross
TTITLE1=Cursed
TTITLE2=With Broken Hearts
TTITLE3=With Bleeding Wrists
TTITLE4=Peachy Tuscadero
TTITLE5=Your Voice Is Music
TTITLE6=Your Paralyzing Wings
TTITLE7=Static
TTITLE8=This War
TTITLE9=Going Away
EXTD=Suburban Home Records
EXTT0=
EXTT1=
EXTT2=
EXTT3=
EXTT4=
EXTT5=
EXTT6=
EXTT7=
EXTT8=
EXTT9=
PLAYORDER=
